# xmcd
#
# Track frame offsets:
#	150
#	12022
#	23769
#	34554
#	49799
#	62560
#	76578
#	85651
#	99300
#	111204
#	120383
#	131940
#	143448
#	162991
#	177178
#	188356
#
# Disc length: 2685 seconds
#
# Revision: 0
# Processed by: cddbd v1.4PL0 Copyright (c) Steve Scherf et al.
# Submitted via: dBpowerAMP V4.0
#
DISCID=b20a7b10
DTITLE=Willie Nelson - Guitar and Gras
DYEAR=1900
DGENRE=Country
TTITLE0=Some Other Time
TTITLE1=Is There Something On Your Mind
TTITLE2=Blame It On The Times
TTITLE3=Face Of A Fighter
TTITLE4=Shelter Of Your Arms
TTITLE5=Home Is Where You're Happy
TTITLE6=Waiting Time
TTITLE7=No Tomorrow In Sight
TTITLE8=Happiness Lives Next Door
TTITLE9=Right From Wrong
TTITLE10=Night Life
TTITLE11=Country Willie
TTITLE12=My Way
TTITLE13=Rainy Day Blues
TTITLE14=I'm Gonna Loose A Lot Of Teardrops
TTITLE15=You'll Allways Have Someone
EXTD=
EXTT0=
EXTT1=
EXTT2=
EXTT3=
EXTT4=
EXTT5=
EXTT6=
EXTT7=
EXTT8=
EXTT9=
EXTT10=
EXTT11=
EXTT12=
EXTT13=
EXTT14=
EXTT15=
PLAYORDER=
